<svg width="129" height="39" viewBox="0 0 129 39" fill="none" xmlns="http://www.w3.org/2000/svg">
<path d="M7.952 29.722C7.952 30.1327 8.02667 30.52 8.176 30.884C8.33467 31.248 8.54933 31.5653 8.82 31.836C9.09067 32.1067 9.40333 32.3213 9.758 32.48C10.122 32.6387 10.514 32.718 10.934 32.718C11.3353 32.718 11.7133 32.6433 12.068 32.494C12.432 32.3353 12.7493 32.1253 13.02 31.864C13.2907 31.5933 13.5053 31.276 13.664 30.912C13.8227 30.548 13.902 30.1607 13.902 29.75C13.902 29.3393 13.8227 28.9567 13.664 28.602C13.5053 28.238 13.286 27.9253 13.006 27.664C12.7353 27.3933 12.418 27.1833 12.054 27.034C11.6993 26.8753 11.3213 26.796 10.92 26.796C10.528 26.796 10.15 26.8753 9.786 27.034C9.43133 27.1833 9.114 27.3933 8.834 27.664C8.56333 27.9253 8.34867 28.2333 8.19 28.588C8.03133 28.9427 7.952 29.3207 7.952 29.722ZM3.85 35H1.106V24.444H3.85V28.672H5.166C5.278 28.0187 5.50667 27.4167 5.852 26.866C6.19733 26.306 6.62667 25.8253 7.14 25.424C7.65333 25.0227 8.232 24.71 8.876 24.486C9.52 24.2527 10.2013 24.136 10.92 24.136C11.76 24.136 12.5347 24.2807 13.244 24.57C13.9627 24.8593 14.5833 25.2607 15.106 25.774C15.6287 26.278 16.0347 26.8707 16.324 27.552C16.6227 28.2333 16.772 28.966 16.772 29.75C16.772 30.534 16.6227 31.2713 16.324 31.962C16.0347 32.6433 15.6287 33.236 15.106 33.74C14.5833 34.244 13.958 34.6453 13.23 34.944C12.5113 35.2333 11.7273 35.378 10.878 35.378C10.1873 35.378 9.52933 35.2707 8.904 35.056C8.27867 34.8507 7.714 34.5567 7.21 34.174C6.71533 33.782 6.29533 33.32 5.95 32.788C5.60467 32.2467 5.362 31.6493 5.222 30.996H3.85V35ZM17.9223 32.914C17.9596 32.9233 18.0016 32.928 18.0483 32.928C18.5803 32.928 18.8463 32.522 18.8463 31.71V24.444H27.4843V35H24.7403V26.768H21.5763V31.752C21.5763 32.2747 21.497 32.7507 21.3383 33.18C21.1796 33.6093 20.951 33.9827 20.6523 34.3C20.3536 34.6173 19.9896 34.86 19.5603 35.028C19.1403 35.2053 18.6643 35.294 18.1323 35.294H17.9223V32.914ZM32.4379 24.444V30.912L37.4919 24.444H40.2359V35H37.4919V28.546L32.4379 35H29.6939V24.444H32.4379ZM45.1938 24.444V30.912L50.2478 24.444H52.9918V35H50.2478V28.546L45.1938 35H42.4498V24.444H45.1938ZM62.7074 32.872H63.3094C64.0001 32.872 64.4948 32.7833 64.7934 32.606C65.0921 32.4287 65.2414 32.144 65.2414 31.752C65.2414 31.36 65.0921 31.0753 64.7934 30.898C64.4948 30.7207 64.0001 30.632 63.3094 30.632H62.7074V32.872ZM62.7074 28.588H63.2114C64.0701 28.588 64.4994 28.2473 64.4994 27.566C64.4994 26.8847 64.0701 26.544 63.2114 26.544H62.7074V28.588ZM59.9634 24.444H64.0514C65.0221 24.444 65.7594 24.6773 66.2634 25.144C66.7674 25.6107 67.0194 26.2827 67.0194 27.16C67.0194 27.692 66.9214 28.1353 66.7254 28.49C66.5388 28.8353 66.2494 29.1293 65.8574 29.372C66.2494 29.4467 66.5808 29.5633 66.8514 29.722C67.1314 29.8713 67.3554 30.058 67.5234 30.282C67.7008 30.506 67.8268 30.758 67.9014 31.038C67.9761 31.318 68.0134 31.6167 68.0134 31.934C68.0134 32.4287 67.9248 32.8673 67.7474 33.25C67.5794 33.6327 67.3368 33.9547 67.0194 34.216C66.7114 34.4773 66.3334 34.6733 65.8854 34.804C65.4374 34.9347 64.9334 35 64.3734 35H59.9634V24.444ZM71.9688 29.722C71.9688 30.142 72.0481 30.5293 72.2068 30.884C72.3654 31.2387 72.5801 31.5467 72.8508 31.808C73.1214 32.0693 73.4341 32.2747 73.7888 32.424C74.1528 32.564 74.5354 32.634 74.9368 32.634C75.3381 32.634 75.7161 32.564 76.0708 32.424C76.4348 32.2747 76.7521 32.0693 77.0228 31.808C77.3028 31.5467 77.5221 31.2387 77.6808 30.884C77.8394 30.5293 77.9188 30.142 77.9188 29.722C77.9188 29.302 77.8394 28.9147 77.6808 28.56C77.5221 28.2053 77.3028 27.8973 77.0228 27.636C76.7521 27.3747 76.4348 27.174 76.0708 27.034C75.7161 26.8847 75.3381 26.81 74.9368 26.81C74.5354 26.81 74.1528 26.8847 73.7888 27.034C73.4341 27.174 73.1214 27.3747 72.8508 27.636C72.5801 27.8973 72.3654 28.2053 72.2068 28.56C72.0481 28.9147 71.9688 29.302 71.9688 29.722ZM69.0988 29.722C69.0988 28.938 69.2434 28.21 69.5328 27.538C69.8221 26.8567 70.2234 26.264 70.7368 25.76C71.2501 25.256 71.8614 24.864 72.5708 24.584C73.2894 24.2947 74.0781 24.15 74.9368 24.15C75.7861 24.15 76.5701 24.2947 77.2888 24.584C78.0074 24.864 78.6234 25.256 79.1368 25.76C79.6594 26.264 80.0654 26.8567 80.3548 27.538C80.6441 28.21 80.7888 28.938 80.7888 29.722C80.7888 30.506 80.6441 31.2387 80.3548 31.92C80.0654 32.592 79.6594 33.18 79.1368 33.684C78.6234 34.188 78.0074 34.5847 77.2888 34.874C76.5701 35.154 75.7861 35.294 74.9368 35.294C74.0781 35.294 73.2894 35.154 72.5708 34.874C71.8614 34.5847 71.2501 34.188 70.7368 33.684C70.2234 33.18 69.8221 32.592 69.5328 31.92C69.2434 31.2387 69.0988 30.506 69.0988 29.722ZM85.266 29.288H86.176C87.184 29.288 87.688 28.8493 87.688 27.972C87.688 27.0947 87.184 26.656 86.176 26.656H85.266V29.288ZM85.266 35H82.522V24.444H86.89C88.0753 24.444 88.9807 24.752 89.606 25.368C90.2407 25.984 90.558 26.852 90.558 27.972C90.558 29.092 90.2407 29.96 89.606 30.576C88.9807 31.192 88.0753 31.5 86.89 31.5H85.266V35ZM91.5343 35L93.3263 24.444H96.0423L98.1563 30.072L100.256 24.444H102.972L104.764 35H102.034L101.124 28.924L98.6323 35H97.5403L95.1743 28.924L94.2643 35H91.5343ZM112.242 31.08L111.01 27.566L109.778 31.08H112.242ZM112.97 33.166H109.05L108.42 35H105.494L109.512 24.444H112.508L116.526 35H113.6L112.97 33.166ZM120.485 28.518H124.447V24.444H127.191V35H124.447V30.646H120.485V35H117.741V24.444H120.485V28.518Z" fill="white"/>
<path d="M3.85 4.444V10.912L8.904 4.444H11.648V15H8.904V8.546L3.85 15H1.106V4.444H3.85ZM16.6059 8.518H20.5679V4.444H23.3119V15H20.5679V10.646H16.6059V15H13.8619V4.444H16.6059V8.518ZM29.528 6.768V15H26.784V6.768H24.53V4.444H31.782V6.768H29.528ZM39.0085 6.768H35.7465V8.532H38.8265V10.856H35.7465V12.676H39.0085V15H33.0025V4.444H39.0085V6.768ZM43.7309 8.518H47.6929V4.444H50.4369V15H47.6929V10.646H43.7309V15H40.9869V4.444H43.7309V8.518ZM60.251 7.972C59.6163 7.19733 58.8323 6.81 57.899 6.81C57.4883 6.81 57.1056 6.88467 56.751 7.034C56.4056 7.18333 56.107 7.38867 55.855 7.65C55.603 7.902 55.4023 8.20533 55.253 8.56C55.113 8.91467 55.043 9.29733 55.043 9.708C55.043 10.128 55.113 10.5153 55.253 10.87C55.4023 11.2247 55.603 11.5327 55.855 11.794C56.1163 12.0553 56.4196 12.2607 56.765 12.41C57.1103 12.5593 57.4836 12.634 57.885 12.634C58.7623 12.634 59.551 12.2607 60.251 11.514V14.762L59.971 14.86C59.551 15.0093 59.159 15.1167 58.795 15.182C58.431 15.2567 58.0716 15.294 57.717 15.294C56.989 15.294 56.289 15.1587 55.617 14.888C54.9543 14.608 54.3663 14.2207 53.853 13.726C53.349 13.222 52.943 12.6293 52.635 11.948C52.327 11.2573 52.173 10.506 52.173 9.694C52.173 8.882 52.3223 8.14 52.621 7.468C52.929 6.78667 53.335 6.20333 53.839 5.718C54.3523 5.22333 54.945 4.84067 55.617 4.57C56.289 4.29 56.9936 4.15 57.731 4.15C58.151 4.15 58.5616 4.19667 58.963 4.29C59.3736 4.374 59.803 4.50933 60.251 4.696V7.972ZM64.7309 4.444V10.912L69.7849 4.444H72.5289V15H69.7849V8.546L64.7309 15H61.9869V4.444H64.7309ZM77.4867 12.872H78.0887C78.7794 12.872 79.2741 12.7833 79.5727 12.606C79.8714 12.4287 80.0207 12.144 80.0207 11.752C80.0207 11.36 79.8714 11.0753 79.5727 10.898C79.2741 10.7207 78.7794 10.632 78.0887 10.632H77.4867V12.872ZM77.4867 8.588H77.9907C78.8494 8.588 79.2787 8.24733 79.2787 7.566C79.2787 6.88467 78.8494 6.544 77.9907 6.544H77.4867V8.588ZM74.7427 4.444H78.8307C79.8014 4.444 80.5387 4.67733 81.0427 5.144C81.5467 5.61067 81.7987 6.28267 81.7987 7.16C81.7987 7.692 81.7007 8.13533 81.5047 8.49C81.3181 8.83533 81.0287 9.12933 80.6367 9.372C81.0287 9.44667 81.3601 9.56333 81.6307 9.722C81.9107 9.87133 82.1347 10.058 82.3027 10.282C82.4801 10.506 82.6061 10.758 82.6807 11.038C82.7554 11.318 82.7927 11.6167 82.7927 11.934C82.7927 12.4287 82.7041 12.8673 82.5267 13.25C82.3587 13.6327 82.1161 13.9547 81.7987 14.216C81.4907 14.4773 81.1127 14.6733 80.6647 14.804C80.2167 14.9347 79.7127 15 79.1527 15H74.7427V4.444Z" fill="white"/>
</svg>
